# xmcd CD database file
#
# Track frame offsets:
#	150
#	19528
#	39906
#	64683
#	95832
#	124609
#	153571
#	178080
#	202191
#	216836
#	238010
#	261609
#
# Disc length: 3918 seconds
#
# Revision: 0
# Processed by: cddbd v1.5.2PL0 Copyright (c) Steve Scherf et al.
# Submitted via: CDex 1.70beta2
#
DISCID=af0f4c0c
DTITLE=Nils Wülker - Space Night
DYEAR=1900
DGENRE=Jazz
TTITLE0=Abell 70
TTITLE1=Hypernova
TTITLE2=Pinwheel Galaxy
TTITLE3=Deep Field
TTITLE4=Andrastea
TTITLE5=Abell 12 (Reprise)
TTITLE6=Metis
TTITLE7=Cescent Nebula
TTITLE8=Abell 9 (Interlude)
TTITLE9=Thebe
TTITLE10=Swan Nebula
TTITLE11=Prospero
EXTD=
EXTT0=
EXTT1=
EXTT2=
EXTT3=
EXTT4=
EXTT5=
EXTT6=
EXTT7=
EXTT8=
EXTT9=
EXTT10=
EXTT11=
PLAYORDER=
